<svg width="24" height="24" viewBox="0 0 24 24" fill="none" xmlns="http://www.w3.org/2000/svg">
<path fill-rule="evenodd" clip-rule="evenodd" d="M12.895 1.76748C12.895 1.44684 12.6956 1.16 12.3951 1.0482C12.0946 0.936403 11.7563 1.0232 11.5467 1.26586L1.8258 12.5214C1.62956 12.7487 1.58384 13.0695 1.70878 13.3425C1.83372 13.6155 2.10638 13.7906 2.40661 13.7906H7.26789V22.2325C7.26789 22.5532 7.46722 22.84 7.76773 22.9518C8.06828 23.0636 8.40656 22.9768 8.61613 22.7341L18.337 11.4785C18.5333 11.2514 18.579 10.9306 18.4541 10.6576C18.3292 10.3846 18.0565 10.2095 17.7562 10.2095H12.895V1.76748ZM14.8505 22.5435C14.7365 22.8516 14.8049 22.9999 15.1472 22.9999H15.9344C16.5048 22.9999 16.6531 22.9086 16.7672 22.5777L17.1323 21.4939H19.9503L20.3153 22.5777C20.4066 22.9086 20.5777 22.9999 21.1482 22.9999H22.0038C22.3461 22.9999 22.426 22.8516 22.3119 22.5435L19.5852 15.2647C19.4825 14.9681 19.3342 14.8997 19.0147 14.8997H18.1363C17.8168 14.8997 17.6799 14.9681 17.5658 15.2876L14.8505 22.5435ZM19.4711 19.9994H17.6229L18.2161 18.2196C18.4899 17.3982 18.4899 16.5996 18.4899 16.5996H18.5926C18.5926 16.5996 18.6154 17.4096 18.8778 18.231L19.4711 19.9994Z" fill="black"/>
</svg>
