<svg width="26" height="26" viewBox="0 0 26 26" fill="none" xmlns="http://www.w3.org/2000/svg">
<path d="M5.8 1.3176C4.48728 1.56174 3.52115 1.99356 2.75736 2.75736C1.99356 3.52115 1.56174 4.48728 1.3176 5.8M20.2 1.3176C21.5127 1.56174 22.4789 1.99356 23.2427 2.75736C24.0064 3.52115 24.4383 4.48728 24.6824 5.8M15.4 1.00625C14.6618 1 13.8639 1 13 1C12.1361 1 11.3382 1 10.6 1.00625M24.9937 10.6C25 11.3382 25 12.1361 25 13C25 13.8639 25 14.6618 24.9937 15.4001M1.00625 10.6C1 11.3382 1 12.1361 1 13C1 13.8639 1 14.6618 1.00627 15.4001M1.3176 20.2C1.56174 21.5127 1.99356 22.4789 2.75736 23.2427C3.52115 24.0064 4.48728 24.4383 5.8 24.6824M24.6824 20.2C24.4383 21.5127 24.0064 22.4789 23.2427 23.2427C22.4789 24.0064 21.5127 24.4383 20.2 24.6824M15.4 24.9937C14.6618 25 13.8639 25 13 25C12.1363 25 11.3383 25 10.6003 24.9937" stroke="black" stroke-width="0.7" stroke-linecap="round" stroke-linejoin="round"/>
</svg>
