<svg width="36" height="36" viewBox="0 0 36 36" fill="none" xmlns="http://www.w3.org/2000/svg">
<g clip-path="url(#clip0_369_203)">
<path fill-rule="evenodd" clip-rule="evenodd" d="M22 0.5H18.25V2.75C18.25 2.88807 18.1381 3 18 3C17.8619 3 17.75 2.88807 17.75 2.75V0.5H14C10.686 0.5 8.25086 0.501062 6.38572 0.751823C4.53497 1.00065 3.32055 1.48706 2.40381 2.40381C1.48706 3.32055 1.00065 4.53497 0.751823 6.38572C0.501062 8.25086 0.5 10.686 0.5 14V17.75H2.75C2.88807 17.75 3 17.8619 3 18C3 18.1381 2.88807 18.25 2.75 18.25H0.5V22C0.5 25.314 0.501062 27.7491 0.751823 29.6143C1.00065 31.465 1.48706 32.6795 2.40381 33.5962C3.32055 34.5129 4.53497 34.9994 6.38572 35.2482C8.25086 35.4989 10.686 35.5 14 35.5H17.75V33.25C17.75 33.1119 17.8619 33 18 33C18.1381 33 18.25 33.1119 18.25 33.25V35.5H22C25.314 35.5 27.7491 35.4989 29.6143 35.2482C31.465 34.9994 32.6795 34.5129 33.5962 33.5962C34.5129 32.6795 34.9994 31.465 35.2482 29.6143C35.4989 27.7491 35.5 25.314 35.5 22V18.25H33.25C33.1119 18.25 33 18.1381 33 18C33 17.8619 33.1119 17.75 33.25 17.75H35.5V14C35.5 10.686 35.4989 8.25086 35.2482 6.38572C34.9994 4.53497 34.5129 3.32055 33.5962 2.40381C32.6795 1.48706 31.465 1.00065 29.6143 0.751823C27.7491 0.501062 25.314 0.5 22 0.5ZM36 18V14C36 7.40034 36 4.1005 33.9497 2.05025C31.8995 0 28.5997 0 22 0H18H14C7.40034 0 4.1005 0 2.05025 2.05025C0 4.1005 0 7.40034 0 14V18V22C0 28.5997 0 31.8995 2.05025 33.9497C4.1005 36 7.40034 36 14 36H18H22C28.5997 36 31.8995 36 33.9497 33.9497C36 31.8995 36 28.5997 36 22V18Z" fill="white"/>
</g>
<defs>
<clipPath id="clip0_369_203">
<rect width="36" height="36" fill="white"/>
</clipPath>
</defs>
</svg>
