<svg width="16" height="16" viewBox="0 0 16 16" fill="none" xmlns="http://www.w3.org/2000/svg">
<g clip-path="url(#clip0_379_240)">
<path d="M7 2.50006C7.00015 2.38889 6.96324 2.28084 6.89512 2.19299C6.82699 2.10513 6.73152 2.04249 6.62382 2.01496C6.51611 1.98743 6.40229 1.99659 6.30037 2.04097C6.19844 2.08536 6.11421 2.16245 6.061 2.26006L0.0609996 13.2601C0.0193227 13.3362 -0.00180049 13.4219 -0.000290586 13.5088C0.00121932 13.5956 0.0253103 13.6805 0.0696108 13.7552C0.113911 13.8298 0.176894 13.8917 0.25236 13.9346C0.327826 13.9776 0.413173 14.0001 0.5 14.0001H6.5C6.63261 14.0001 6.75978 13.9474 6.85355 13.8536C6.94732 13.7598 7 13.6327 7 13.5001V2.50006ZM9.376 2.01606C9.48373 1.98848 9.59757 1.99759 9.69954 2.04196C9.8015 2.08634 9.88576 2.16343 9.939 2.26106L15.939 13.2611C15.9804 13.3372 16.0014 13.4228 15.9997 13.5095C15.9981 13.5961 15.974 13.6809 15.9297 13.7554C15.8854 13.8299 15.8225 13.8917 15.7472 13.9346C15.6719 13.9775 15.5867 14 15.5 14.0001H9.5C9.36739 14.0001 9.24021 13.9474 9.14645 13.8536C9.05268 13.7598 9 13.6327 9 13.5001V2.50006C9.00008 2.3891 9.03708 2.28132 9.10515 2.1937C9.17322 2.10607 9.26851 2.04358 9.376 2.01606Z" fill="white"/>
</g>
<defs>
<clipPath id="clip0_379_240">
<rect width="16" height="16" fill="white"/>
</clipPath>
</defs>
</svg>
