<svg width="24" height="24" viewBox="0 0 24 24" fill="none" xmlns="http://www.w3.org/2000/svg">
<path fill-rule="evenodd" clip-rule="evenodd" d="M7.5 2.5C7.5 1.94772 7.05228 1.5 6.5 1.5C5.94772 1.5 5.5 1.94772 5.5 2.5V6H2.5C1.94772 6 1.5 6.44772 1.5 7C1.5 7.55228 1.94772 8 2.5 8H5.5V16H2.5C1.94772 16 1.5 16.4477 1.5 17C1.5 17.5523 1.94772 18 2.5 18H5.5V21.5C5.5 22.0523 5.94772 22.5 6.5 22.5C7.05228 22.5 7.5 22.0523 7.5 21.5V18H16.5V21.5C16.5 22.0523 16.9477 22.5 17.5 22.5C18.0523 22.5 18.5 22.0523 18.5 21.5V18H21.5C22.0523 18 22.5 17.5523 22.5 17C22.5 16.4477 22.0523 16 21.5 16H18.5V8H21.5C22.0523 8 22.5 7.55228 22.5 7C22.5 6.44772 22.0523 6 21.5 6H18.5V2.5C18.5 1.94772 18.0523 1.5 17.5 1.5C16.9477 1.5 16.5 1.94772 16.5 2.5V6H7.5V2.5ZM16.5 16V8H7.5V16H16.5Z" fill="black"/>
</svg>
