<svg width="24" height="24" viewBox="0 0 24 24" fill="none" xmlns="http://www.w3.org/2000/svg">
<path fill-rule="evenodd" clip-rule="evenodd" d="M13 3C13 2.44772 12.5523 2 12 2C11.4477 2 11 2.44772 11 3V6.5C11 7.05228 11.4477 7.5 12 7.5C12.5523 7.5 13 7.05228 13 6.5V3ZM13 10C13 9.44772 12.5523 9 12 9C11.4477 9 11 9.44772 11 10V14C11 14.5523 11.4477 15 12 15C12.5523 15 13 14.5523 13 14V10ZM13 17.5C13 16.9477 12.5523 16.5 12 16.5C11.4477 16.5 11 16.9477 11 17.5V21C11 21.5523 11.4477 22 12 22C12.5523 22 13 21.5523 13 21V17.5ZM8.48831 10.5774C9.5039 11.2681 9.5039 12.731 8.48831 13.4217L4.05853 16.4344C2.93104 17.2012 1.25 16.4821 1.25 15.0123V8.98687C1.25 7.51699 2.93104 6.79791 4.05853 7.56471L8.48831 10.5774ZM19.9415 7.56471C21.069 6.79791 22.75 7.51699 22.75 8.98687V15.0123C22.75 16.4821 21.069 17.2012 19.9415 16.4344L15.5117 13.4217C14.4961 12.731 14.4961 11.2681 15.5117 10.5774L19.9415 7.56471Z" fill="black" fill-opacity="0.28"/>
</svg>
