<svg width="24" height="24" viewBox="0 0 24 24" fill="none" xmlns="http://www.w3.org/2000/svg">
<path fill-rule="evenodd" clip-rule="evenodd" d="M2.5 7.1955C2.5 5.86875 3.57554 4.79321 4.90228 4.79321H15.3849C16.7117 4.79321 17.7872 5.86875 17.7872 7.1955V7.9397L20.1632 6.4547C20.4325 6.28639 20.7719 6.27748 21.0496 6.43142C21.3274 6.58536 21.4998 6.87792 21.4998 7.19547V16.8046C21.4998 17.1221 21.3274 17.4147 21.0496 17.5686C20.7719 17.7226 20.4325 17.7137 20.1632 17.5454L17.7872 16.0604V16.8046C17.7872 18.1314 16.7117 19.2069 15.3849 19.2069H4.90228C3.57554 19.2069 2.5 18.1314 2.5 16.8046V7.1955ZM17.7872 14.0001L19.7527 15.2285V8.77159L17.7872 9.99999V14.0001ZM14.5114 9.37939C14.5114 10.1031 13.9248 10.6897 13.201 10.6897C12.4774 10.6897 11.8907 10.1031 11.8907 9.37939C11.8907 8.65571 12.4774 8.06905 13.201 8.06905C13.9248 8.06905 14.5114 8.65571 14.5114 9.37939Z" fill="black"/>
</svg>
