<svg width="25" height="24" viewBox="0 0 25 24" fill="none" xmlns="http://www.w3.org/2000/svg">
<path d="M20.75 3.75H4.25C3.85217 3.75 3.47064 3.90804 3.18933 4.18934C2.90804 4.47065 2.75 4.85217 2.75 5.25V18.75C2.75 19.1478 2.90804 19.5294 3.18933 19.8106C3.47064 20.0919 3.85217 20.25 4.25 20.25H20.75C21.1478 20.25 21.5294 20.0919 21.8106 19.8106C22.0919 19.5294 22.25 19.1478 22.25 18.75V5.25C22.25 4.85217 22.0919 4.47065 21.8106 4.18934C21.5294 3.90804 21.1478 3.75 20.75 3.75ZM17.75 5.25H20.75V6.75H17.75V5.25ZM7.25 18.75H4.25V17.25H7.25V18.75ZM7.25 6.75H4.25V5.25H7.25V6.75ZM11.75 18.75H8.75V17.25H11.75V18.75ZM11.75 6.75H8.75V5.25H11.75V6.75ZM16.25 18.75H13.25V17.25H16.25V18.75ZM16.25 6.75H13.25V5.25H16.25V6.75ZM20.75 18.75H17.75V17.25H20.75V18.75Z" fill="black"/>
</svg>
