<svg width="16" height="16" viewBox="0 0 16 16" fill="none" xmlns="http://www.w3.org/2000/svg">
<path d="M10.8669 7.4112L4.91686 13.8393C4.84193 13.9209 4.74204 13.9753 4.63286 13.9939C4.52369 14.0126 4.41141 13.9944 4.31365 13.9424C4.21589 13.8903 4.13819 13.8073 4.09273 13.7063C4.04727 13.6053 4.03664 13.492 4.06249 13.3843L4.91686 9.78683L1.79186 8.38433C1.71952 8.35179 1.65595 8.30251 1.60642 8.24055C1.55688 8.17859 1.5228 8.10574 1.50699 8.02801C1.49117 7.95027 1.49408 7.86989 1.51547 7.79351C1.53685 7.71712 1.57611 7.64692 1.62999 7.5887L7.57999 1.16058C7.65452 1.07735 7.75478 1.02149 7.86476 1.00189C7.97475 0.982297 8.08813 1.0001 8.18682 1.05247C8.28551 1.10483 8.36381 1.18874 8.40925 1.2908C8.45468 1.39286 8.46462 1.5072 8.43749 1.61558L7.58186 5.21308L10.7069 6.61495C10.7793 6.64746 10.843 6.69676 10.8926 6.75877C10.9422 6.82077 10.9763 6.89371 10.9922 6.97153C11.008 7.04935 11.005 7.12982 10.9836 7.20628C10.9621 7.28274 10.9228 7.35298 10.8687 7.4112H10.8669ZM14.7237 13.9468C14.6544 13.9819 14.5777 14.0001 14.5 14C14.4071 14 14.316 13.9742 14.237 13.9254C14.1579 13.8766 14.0941 13.8068 14.0525 13.7237L13.4406 12.5H11.0587L10.4469 13.7237C10.3875 13.8423 10.2835 13.9325 10.1577 13.9744C10.0318 14.0163 9.89453 14.0065 9.77593 13.9471C9.65732 13.8878 9.56715 13.7838 9.52525 13.6579C9.48335 13.5321 9.49315 13.3948 9.55249 13.2762L11.8025 8.7762C11.844 8.69316 11.9079 8.62333 11.9868 8.57452C12.0658 8.52571 12.1568 8.49986 12.2497 8.49986C12.3425 8.49986 12.4335 8.52571 12.5125 8.57452C12.5915 8.62333 12.6553 8.69316 12.6969 8.7762L14.9469 13.2762C15.0061 13.3947 15.0159 13.5319 14.9741 13.6577C14.9323 13.7834 14.8422 13.8874 14.7237 13.9468ZM12.9406 11.5L12.25 10.1181L11.5587 11.5H12.9406Z" fill="white"/>
</svg>
