<svg width="16" height="16" viewBox="0 0 16 16" fill="none" xmlns="http://www.w3.org/2000/svg">
<g clip-path="url(#clip0_396_253)">
<path d="M-2.95028e-06 2.95028e-06L16 16" stroke="white"/>
<path opacity="0.52" fill-rule="evenodd" clip-rule="evenodd" d="M11.5521 9.78433L13.3656 7.8413H13.3631C13.4192 7.78138 13.4598 7.70854 13.4811 7.62923C13.5024 7.54992 13.5039 7.46658 13.4853 7.38658C13.4668 7.30657 13.4288 7.23236 13.3748 7.17051C13.3208 7.10865 13.2524 7.06106 13.1756 7.03193L9.57371 5.6813L10.4925 1.09318C10.5132 0.986692 10.4988 0.876346 10.4513 0.778793C10.4038 0.681239 10.3259 0.601771 10.2293 0.55238C10.1327 0.502989 10.0227 0.486356 9.91581 0.50499C9.80893 0.523624 9.71102 0.576514 9.63684 0.655679L6.15451 4.38675L11.5521 9.78433ZM9.84529 11.6131L4.4477 6.21547L2.63684 8.15568C2.57998 8.21559 2.53886 8.28864 2.51713 8.36832C2.4954 8.448 2.49374 8.53183 2.51232 8.6123C2.53089 8.69277 2.5691 8.7674 2.62355 8.8295C2.678 8.8916 2.74698 8.93924 2.82434 8.96818L6.42621 10.3207L5.50996 14.9038C5.48921 15.0103 5.50366 15.1206 5.55113 15.2182C5.5986 15.3157 5.67651 15.3952 5.7731 15.4446C5.8697 15.494 5.97974 15.5106 6.08661 15.492C6.19349 15.4734 6.29141 15.4205 6.36559 15.3413L9.84529 11.6131Z" fill="white"/>
</g>
<defs>
<clipPath id="clip0_396_253">
<rect width="16" height="16" fill="white"/>
</clipPath>
</defs>
</svg>
