<svg width="16" height="16" viewBox="0 0 16 16" fill="none" xmlns="http://www.w3.org/2000/svg">
<path d="M14.5306 5.03057L6.5306 13.0306C6.46092 13.1005 6.37813 13.156 6.28696 13.1938C6.1958 13.2317 6.09806 13.2512 5.99935 13.2512C5.90064 13.2512 5.8029 13.2317 5.71173 13.1938C5.62057 13.156 5.53778 13.1005 5.4681 13.0306L1.9681 9.53057C1.89833 9.4608 1.84299 9.37798 1.80524 9.28683C1.76748 9.19568 1.74805 9.09798 1.74805 8.99932C1.74805 8.90066 1.76748 8.80296 1.80524 8.71181C1.84299 8.62066 1.89833 8.53783 1.9681 8.46807C2.03786 8.3983 2.12069 8.34296 2.21184 8.30521C2.30299 8.26745 2.40069 8.24802 2.49935 8.24802C2.59801 8.24802 2.69571 8.26745 2.78686 8.30521C2.87801 8.34296 2.96083 8.3983 3.0306 8.46807L5.99997 11.4374L13.4693 3.96932C13.6102 3.82842 13.8013 3.74927 14.0006 3.74927C14.1999 3.74927 14.391 3.82842 14.5318 3.96932C14.6727 4.11021 14.7519 4.30131 14.7519 4.50057C14.7519 4.69983 14.6727 4.89092 14.5318 5.03182L14.5306 5.03057Z" fill="white"/>
</svg>
