<svg width="16" height="16" viewBox="0 0 16 16" fill="none" xmlns="http://www.w3.org/2000/svg">
<g clip-path="url(#clip0_430_363)">
<path d="M-2.95028e-06 2.95028e-06L16 16" stroke="white"/>
<path opacity="0.52" fill-rule="evenodd" clip-rule="evenodd" d="M14.3282 12.5604C14.4394 12.3962 14.5 12.2012 14.5 12V10.5C14.5 10.4337 14.4737 10.3701 14.4268 10.3232C14.3799 10.2763 14.3163 10.25 14.25 10.25H12.0178L14.3282 12.5604ZM8.48223 10.25L9.75 11.5178V12.75C9.75 12.8163 9.72366 12.8799 9.67678 12.9268C9.62989 12.9737 9.5663 13 9.5 13H6.5C6.4337 13 6.37011 12.9737 6.32322 12.9268C6.27634 12.8799 6.25 12.8163 6.25 12.75V10.25H8.48223ZM10.75 8.98224V6.75H14.25C14.3163 6.75 14.3799 6.77634 14.4268 6.82322C14.4737 6.87011 14.5 6.9337 14.5 7V9C14.5 9.0663 14.4737 9.12989 14.4268 9.17678C14.3799 9.22366 14.3163 9.25 14.25 9.25H11.0178L10.75 8.98224ZM9.75 7.98224L8.51776 6.75H9.75V7.98224ZM6.25 8.01777L7.48223 9.25H6.25V8.01777ZM4.98223 6.75L5.25 7.01777V9.25H1.75C1.6837 9.25 1.62011 9.22366 1.57322 9.17678C1.52634 9.12989 1.5 9.0663 1.5 9V7C1.5 6.9337 1.52634 6.87011 1.57322 6.82322C1.62011 6.77634 1.6837 6.75 1.75 6.75H4.98223ZM7.51776 5.75L6.25 4.48224V3.25C6.25 3.1837 6.27634 3.12011 6.32322 3.07322C6.37011 3.02634 6.4337 3 6.5 3H9.5C9.5663 3 9.62989 3.02634 9.67678 3.07322C9.72366 3.12011 9.75 3.1837 9.75 3.25V5.75H7.51776ZM5.25 3.48224L4.76776 3H5C5.0663 3 5.12989 3.02634 5.17678 3.07322C5.22366 3.12011 5.25 3.1837 5.25 3.25V3.48224ZM1.6718 3.43957L3.98223 5.75H1.75C1.6837 5.75 1.62011 5.72366 1.57322 5.67678C1.52634 5.62989 1.5 5.5663 1.5 5.5V4C1.5 3.79879 1.56064 3.60384 1.6718 3.43957ZM10.75 12.5178L11.2322 13H11C10.9337 13 10.8701 12.9737 10.8232 12.9268C10.7763 12.8799 10.75 12.8163 10.75 12.75V12.5178ZM1.5 12V10.5C1.5 10.4337 1.52634 10.3701 1.57322 10.3232C1.62011 10.2763 1.6837 10.25 1.75 10.25H5.25V12.75C5.25 12.8163 5.22366 12.8799 5.17678 12.9268C5.12989 12.9737 5.0663 13 5 13H2.5C2.23478 13 1.98043 12.8946 1.79289 12.7071C1.60536 12.5196 1.5 12.2652 1.5 12ZM11 3H13.5C13.7652 3 14.0196 3.10536 14.2071 3.29289C14.3946 3.48043 14.5 3.73478 14.5 4V5.5C14.5 5.5663 14.4737 5.62989 14.4268 5.67678C14.3799 5.72366 14.3163 5.75 14.25 5.75H10.75V3.25C10.75 3.1837 10.7763 3.12011 10.8232 3.07322C10.8701 3.02634 10.9337 3 11 3Z" fill="white"/>
</g>
<defs>
<clipPath id="clip0_430_363">
<rect width="16" height="16" fill="white"/>
</clipPath>
</defs>
</svg>
