<svg width="25" height="24" viewBox="0 0 25 24" fill="none" xmlns="http://www.w3.org/2000/svg">
<path d="M20 6V18C20 18.3978 19.8419 18.7794 19.5606 19.0606C19.2794 19.3419 18.8978 19.5 18.5 19.5H6.5C6.10217 19.5 5.72065 19.3419 5.43934 19.0606C5.15804 18.7794 5 18.3978 5 18V6C5 5.60217 5.15804 5.22065 5.43934 4.93934C5.72065 4.65804 6.10217 4.5 6.5 4.5H18.5C18.8978 4.5 19.2794 4.65804 19.5606 4.93934C19.8419 5.22065 20 5.60217 20 6ZM22.25 4.5C22.0511 4.5 21.8603 4.57902 21.7196 4.71968C21.5791 4.86032 21.5 5.05109 21.5 5.25V18.75C21.5 18.9489 21.5791 19.1397 21.7196 19.2804C21.8603 19.4209 22.0511 19.5 22.25 19.5C22.4489 19.5 22.6397 19.4209 22.7804 19.2804C22.9209 19.1397 23 18.9489 23 18.75V5.25C23 5.05109 22.9209 4.86032 22.7804 4.71968C22.6397 4.57902 22.4489 4.5 22.25 4.5ZM2.75 4.5C2.55109 4.5 2.36032 4.57902 2.21968 4.71968C2.07902 4.86032 2 5.05109 2 5.25V18.75C2 18.9489 2.07902 19.1397 2.21968 19.2804C2.36032 19.4209 2.55109 19.5 2.75 19.5C2.94891 19.5 3.13968 19.4209 3.28032 19.2804C3.42098 19.1397 3.5 18.9489 3.5 18.75V5.25C3.5 5.05109 3.42098 4.86032 3.28032 4.71968C3.13968 4.57902 2.94891 4.5 2.75 4.5Z" fill="black"/>
</svg>
