<svg width="24" height="24" viewBox="0 0 24 24" fill="none" xmlns="http://www.w3.org/2000/svg">
<path fill-rule="evenodd" clip-rule="evenodd" d="M5.59756 3.25C4.30104 3.25 3.25 4.30104 3.25 5.59756V18.4024C3.25 19.699 4.30104 20.75 5.59756 20.75H18.4024C19.699 20.75 20.75 19.699 20.75 18.4024V5.59756C20.75 4.30104 19.699 3.25 18.4024 3.25H5.59756ZM19.0833 18.2496C19.0833 18.7098 18.7102 19.083 18.25 19.083H7.59166L14.002 13.3136C14.582 12.7917 15.442 12.7293 16.0912 13.1621L19.0833 15.1568V18.2496ZM8.58537 10.2927C9.52829 10.2927 10.2927 9.52829 10.2927 8.58537C10.2927 7.64244 9.52829 6.87805 8.58537 6.87805C7.64244 6.87805 6.87805 7.64244 6.87805 8.58537C6.87805 9.52829 7.64244 10.2927 8.58537 10.2927Z" fill="black"/>
</svg>
