<svg width="24" height="24" viewBox="0 0 24 24" fill="none" xmlns="http://www.w3.org/2000/svg">
<path fill-rule="evenodd" clip-rule="evenodd" d="M5.95508 3.58974C5.95508 2.57368 6.77876 1.75 7.79482 1.75H16.2051C17.2211 1.75 18.0448 2.57368 18.0448 3.58974V4.90385H5.95508V3.58974ZM5.99901 6.48077H18.0009C17.8936 7.43999 17.5915 8.37015 17.1098 9.21299L17.102 9.22637L15.9423 11.1664V20.4103C15.9423 21.4263 15.1186 22.25 14.1025 22.25H9.89739C8.88132 22.25 8.05764 21.4263 8.05764 20.4103V11.1664L6.89787 9.22637L6.89005 9.21299C6.40842 8.37015 6.10626 7.43999 5.99901 6.48077ZM12.7884 13.0513C12.7884 12.6158 12.4354 12.2628 11.9999 12.2628C11.5645 12.2628 11.2115 12.6158 11.2115 13.0513V15.1538C11.2115 15.5893 11.5645 15.9423 11.9999 15.9423C12.4354 15.9423 12.7884 15.5893 12.7884 15.1538V13.0513Z" fill="black"/>
</svg>
