<svg width="24" height="24" viewBox="0 0 24 24" fill="none" xmlns="http://www.w3.org/2000/svg">
<path fill-rule="evenodd" clip-rule="evenodd" d="M6.25 4C6.25 3.0335 7.0335 2.25 8 2.25H16C16.9665 2.25 17.75 3.0335 17.75 4V5.25H6.25V4ZM6.29179 6.75H17.7082C17.6062 7.66243 17.3188 8.54722 16.8606 9.34894L16.8532 9.36167L15.75 11.2071V20C15.75 20.9665 14.9665 21.75 14 21.75H10C9.0335 21.75 8.25 20.9665 8.25 20V11.2071L7.1468 9.36167L7.13936 9.34894C6.68123 8.54722 6.39381 7.66243 6.29179 6.75ZM12.75 13C12.75 12.5858 12.4142 12.25 12 12.25C11.5858 12.25 11.25 12.5858 11.25 13V15C11.25 15.4142 11.5858 15.75 12 15.75C12.4142 15.75 12.75 15.4142 12.75 15V13Z" fill="black"/>
</svg>
