<svg width="24" height="26" viewBox="0 0 24 26" fill="none" xmlns="http://www.w3.org/2000/svg">
<path fill-rule="evenodd" clip-rule="evenodd" d="M19.3702 16.129C20.664 13.2044 20.3167 9.48302 16.7621 6.51653C16.338 6.16263 16.2812 5.53204 16.635 5.10801C16.9889 4.68399 17.6195 4.62714 18.0435 4.98096C22.3128 8.54389 22.8383 13.2329 21.1992 16.9381C19.7383 20.2405 16.5241 22.806 12.7971 22.9908L13.4129 23.6065C13.8034 23.9971 13.8034 24.6302 13.4129 25.0207C13.0223 25.4113 12.3892 25.4113 11.9987 25.0207L9.52379 22.5459C9.13332 22.1554 9.13325 21.5222 9.52379 21.1317L11.9987 18.6568C12.3892 18.2663 13.0224 18.2663 13.4129 18.6568C13.8034 19.0473 13.8034 19.6805 13.4129 20.071L12.4841 20.9998C15.4361 20.9434 18.1346 18.9222 19.3702 16.129ZM10.5845 0.979165C10.975 0.588644 11.6081 0.588637 11.9987 0.979165L14.4735 3.45404C14.8641 3.84456 14.8641 4.47773 14.4735 4.86825L12.3522 6.98957C11.9617 7.3801 11.3285 7.38009 10.938 6.98957C10.5475 6.59904 10.5475 5.96589 10.938 5.57536L11.5135 4.99984C8.5594 5.04811 5.88012 7.06057 4.65534 9.85159C3.37325 12.7732 3.72186 16.501 7.22767 19.4905C7.6479 19.8488 7.69811 20.4799 7.33982 20.9002C6.98146 21.3205 6.35022 21.3706 5.92999 21.0123C1.72583 17.4274 1.20159 12.7448 2.82393 9.04789C4.27352 5.74459 7.47005 3.1856 11.1994 3.00833L10.5845 2.39338C10.1939 2.00285 10.1939 1.36969 10.5845 0.979165Z" fill="black"/>
</svg>
