<svg width="16" height="16" viewBox="0 0 16 16" fill="none" xmlns="http://www.w3.org/2000/svg">
<path d="M5.25 3.25V5.75H1.75C1.6837 5.75 1.62011 5.72366 1.57322 5.67678C1.52634 5.62989 1.5 5.5663 1.5 5.5V4C1.5 3.73478 1.60536 3.48043 1.79289 3.29289C1.98043 3.10536 2.23478 3 2.5 3H5C5.0663 3 5.12989 3.02634 5.17678 3.07322C5.22366 3.12011 5.25 3.1837 5.25 3.25ZM6.25 12.75C6.25 12.8163 6.27634 12.8799 6.32322 12.9268C6.37011 12.9737 6.4337 13 6.5 13H9.5C9.5663 13 9.62989 12.9737 9.67678 12.9268C9.72366 12.8799 9.75 12.8163 9.75 12.75V10.25H6.25V12.75ZM1.5 10.5V12C1.5 12.2652 1.60536 12.5196 1.79289 12.7071C1.98043 12.8946 2.23478 13 2.5 13H5C5.0663 13 5.12989 12.9737 5.17678 12.9268C5.22366 12.8799 5.25 12.8163 5.25 12.75V10.25H1.75C1.6837 10.25 1.62011 10.2763 1.57322 10.3232C1.52634 10.3701 1.5 10.4337 1.5 10.5ZM1.5 7V9C1.5 9.0663 1.52634 9.12989 1.57322 9.17678C1.62011 9.22366 1.6837 9.25 1.75 9.25H5.25V6.75H1.75C1.6837 6.75 1.62011 6.77634 1.57322 6.82322C1.52634 6.87011 1.5 6.9337 1.5 7ZM9.5 3H6.5C6.4337 3 6.37011 3.02634 6.32322 3.07322C6.27634 3.12011 6.25 3.1837 6.25 3.25V5.75H9.75V3.25C9.75 3.1837 9.72366 3.12011 9.67678 3.07322C9.62989 3.02634 9.5663 3 9.5 3ZM14.25 6.75H10.75V9.25H14.25C14.3163 9.25 14.3799 9.22366 14.4268 9.17678C14.4737 9.12989 14.5 9.0663 14.5 9V7C14.5 6.9337 14.4737 6.87011 14.4268 6.82322C14.3799 6.77634 14.3163 6.75 14.25 6.75ZM6.25 9.25H9.75V6.75H6.25V9.25ZM13.5 3H11C10.9337 3 10.8701 3.02634 10.8232 3.07322C10.7763 3.12011 10.75 3.1837 10.75 3.25V5.75H14.25C14.3163 5.75 14.3799 5.72366 14.4268 5.67678C14.4737 5.62989 14.5 5.5663 14.5 5.5V4C14.5 3.73478 14.3946 3.48043 14.2071 3.29289C14.0196 3.10536 13.7652 3 13.5 3ZM14.25 10.25H10.75V12.75C10.75 12.8163 10.7763 12.8799 10.8232 12.9268C10.8701 12.9737 10.9337 13 11 13H13.5C13.7652 13 14.0196 12.8946 14.2071 12.7071C14.3946 12.5196 14.5 12.2652 14.5 12V10.5C14.5 10.4337 14.4737 10.3701 14.4268 10.3232C14.3799 10.2763 14.3163 10.25 14.25 10.25Z" fill="white"/>
</svg>
