<svg width="16" height="16" viewBox="0 0 16 16" fill="none" xmlns="http://www.w3.org/2000/svg">
<g clip-path="url(#clip0_417_267)">
<path d="M-2.95028e-06 2.95028e-06L16 16" stroke="white"/>
<path opacity="0.52" fill-rule="evenodd" clip-rule="evenodd" d="M12.2323 14.0001L9 10.7678V13.5001C9 13.6327 9.05268 13.7598 9.14645 13.8536C9.24021 13.9474 9.36739 14.0001 9.5 14.0001H12.2323ZM9 7.23224V2.50006C9.00008 2.3891 9.03708 2.28132 9.10515 2.1937C9.17322 2.10607 9.26851 2.04358 9.376 2.01606C9.48373 1.98848 9.59757 1.99759 9.69954 2.04196C9.8015 2.08634 9.88576 2.16343 9.939 2.26106L15.939 13.2611C15.9804 13.3372 16.0014 13.4228 15.9997 13.5095C15.9981 13.5961 15.974 13.6809 15.9297 13.7554C15.8854 13.8299 15.8225 13.8917 15.7472 13.9346C15.7376 13.9401 15.7278 13.9452 15.7178 13.95L9 7.23224ZM7 5.23224L5.34341 3.57565L6.061 2.26006C6.11421 2.16245 6.19844 2.08536 6.30037 2.04097C6.40229 1.99659 6.51611 1.98743 6.62382 2.01496C6.73152 2.04249 6.82699 2.10513 6.89512 2.19299C6.96324 2.28084 7.00015 2.38889 7 2.50006V5.23224ZM4.09557 5.86334L7 8.76777V13.5001C7 13.6327 6.94732 13.7598 6.85355 13.8536C6.75978 13.9474 6.63261 14.0001 6.5 14.0001H0.5C0.413173 14.0001 0.327826 13.9776 0.25236 13.9346C0.176894 13.8917 0.113911 13.8298 0.0696108 13.7552C0.0253103 13.6805 0.00121932 13.5956 -0.000290586 13.5088C-0.00180049 13.4219 0.0193227 13.3362 0.0609996 13.2601L4.09557 5.86334Z" fill="white"/>
</g>
<defs>
<clipPath id="clip0_417_267">
<rect width="16" height="16" fill="white"/>
</clipPath>
</defs>
</svg>
