<svg width="24" height="24" viewBox="0 0 24 24" fill="none" xmlns="http://www.w3.org/2000/svg">
<path fill-rule="evenodd" clip-rule="evenodd" d="M14.261 1.29711C14.5547 1.40637 14.7495 1.68669 14.7495 2.00004V10.2502H19.5003C19.7937 10.2502 20.0602 10.4213 20.1823 10.6881C20.3044 10.9549 20.2597 11.2684 20.0679 11.4904L10.5679 22.4902C10.3631 22.7274 10.0325 22.8122 9.7388 22.7029C9.44512 22.5937 9.25032 22.3134 9.25032 22V13.7499H4.49952C4.20611 13.7499 3.93965 13.5788 3.81755 13.312C3.69545 13.0452 3.74013 12.7317 3.93191 12.5096L13.4319 1.50982C13.6367 1.27267 13.9673 1.18785 14.261 1.29711Z" fill="black"/>
</svg>
