<svg width="24" height="24" viewBox="0 0 24 24" fill="none" xmlns="http://www.w3.org/2000/svg">
<path fill-rule="evenodd" clip-rule="evenodd" d="M2.70711 1.29289C2.31658 0.90237 1.68342 0.90237 1.29289 1.29289C0.90237 1.68342 0.90237 2.31658 1.29289 2.70711L7.12617 8.54039L3.75262 12.3355C3.49099 12.6298 3.42646 13.0503 3.58777 13.4095C3.74909 13.7687 4.10622 13.9999 4.50002 13.9999H9.00082V22C9.00082 22.4197 9.26284 22.7947 9.65689 22.939C10.051 23.0834 10.4932 22.9663 10.7643 22.6459L15.5614 16.9756L21.2929 22.7071C21.6834 23.0976 22.3166 23.0976 22.7071 22.7071C23.0976 22.3166 23.0976 21.6834 22.7071 21.2929L16.2071 14.7929L9.20712 7.79294L2.70711 1.29289ZM14.9983 1.94132C14.9745 1.53614 14.7081 1.18555 14.3241 1.05401C13.9401 0.922475 13.5147 1.03608 13.2474 1.34154L9.74744 5.34154C9.38376 5.75717 9.42588 6.38894 9.84151 6.75262C10.2571 7.1163 10.8889 7.07418 11.2526 6.65855L13.1451 4.49569L13.5017 10.5588C13.5306 11.0493 13.9116 11.4462 14.4005 11.4951L17.6437 11.8195L17.198 12.4177C16.8681 12.8606 16.9597 13.4871 17.4027 13.817C17.8456 14.147 18.4721 14.0554 18.802 13.6124L20.3028 11.5976C20.518 11.3086 20.5612 10.9263 20.4158 10.5966C20.2703 10.267 19.9588 10.041 19.6003 10.0052L15.4482 9.58989L14.9983 1.94132Z" fill="black"/>
</svg>
