<svg width="16" height="16" viewBox="0 0 16 16" fill="none" xmlns="http://www.w3.org/2000/svg">
<g clip-path="url(#clip0_373_576)">
<path d="M6.96332 4.33588L6.96332 0.259109C6.96334 0.209856 6.97739 0.161628 7.00383 0.120072C7.03027 0.078516 7.068 0.0453529 7.1126 0.0244646C7.15721 0.00357718 7.20684 -0.00417142 7.25569 0.0021295C7.30453 0.00842947 7.35058 0.0285167 7.38842 0.0600385L9.83531 2.09842C9.86449 2.12275 9.88795 2.15319 9.90406 2.18759C9.92016 2.22199 9.92851 2.25951 9.92851 2.29749C9.92851 2.33548 9.92016 2.373 9.90406 2.4074C9.88795 2.4418 9.86449 2.47224 9.83531 2.49656L7.38842 4.53495C7.35058 4.56647 7.30453 4.58656 7.25569 4.59286C7.20684 4.59916 7.15721 4.59141 7.1126 4.57052C7.068 4.54964 7.03027 4.51647 7.00383 4.47492C6.97739 4.43336 6.96334 4.38513 6.96332 4.33588ZM9.03696 15.7409L9.03696 11.6641C9.03695 11.6149 9.02289 11.5666 8.99646 11.5251C8.97002 11.4835 8.93229 11.4504 8.88769 11.4295C8.84308 11.4086 8.79345 11.4008 8.7446 11.4071C8.69575 11.4134 8.64971 11.4335 8.61187 11.465L6.16497 13.5034C6.1358 13.5278 6.11233 13.5582 6.09623 13.5926C6.08013 13.627 6.07178 13.6645 6.07178 13.7025C6.07178 13.7405 6.08013 13.778 6.09623 13.8124C6.11233 13.8468 6.1358 13.8772 6.16497 13.9016L8.61187 15.94C8.64971 15.9715 8.69575 15.9916 8.7446 15.9979C8.79345 16.0042 8.84308 15.9964 8.88769 15.9755C8.93229 15.9546 8.97002 15.9215 8.99646 15.8799C9.02289 15.8384 9.03695 15.7901 9.03696 15.7409Z" fill="white"/>
<path fill-rule="evenodd" clip-rule="evenodd" d="M2.81602 8.00003C2.81602 9.60917 3.54905 11.0483 4.70096 11.999C4.75599 12.0415 4.80192 12.0946 4.83602 12.1551C4.87012 12.2157 4.89169 12.2825 4.89945 12.3516C4.90722 12.4206 4.90102 12.4906 4.88122 12.5572C4.86142 12.6238 4.82842 12.6858 4.7842 12.7394C4.73997 12.793 4.68542 12.8372 4.62377 12.8693C4.56213 12.9014 4.49467 12.9208 4.42538 12.9263C4.3561 12.9318 4.28642 12.9233 4.22048 12.9013C4.15454 12.8794 4.09369 12.8444 4.04154 12.7984C3.12243 12.0393 2.44071 11.0321 2.07745 9.89672C1.7142 8.76133 1.6847 7.54549 1.99247 6.39381C2.30023 5.24214 2.93232 4.2031 3.81353 3.40027C4.69475 2.59745 5.78802 2.06462 6.9633 1.86517L6.9633 2.91961C5.79235 3.15863 4.73995 3.79488 3.9842 4.72067C3.22845 5.64646 2.81578 6.80494 2.81602 8.00003ZM9.03694 13.0804C9.99561 12.8842 10.8792 12.4207 11.5856 11.7435C12.292 11.0663 12.7924 10.2031 13.029 9.25358C13.2656 8.30406 13.2287 7.30697 12.9226 6.37752C12.6166 5.44806 12.0538 4.62417 11.2993 4.00102C11.2443 3.95856 11.1983 3.90548 11.1642 3.84491C11.1301 3.78435 11.1085 3.71755 11.1008 3.64849C11.093 3.57942 11.0992 3.5095 11.119 3.44288C11.1388 3.37626 11.1718 3.3143 11.216 3.26068C11.2603 3.20707 11.3148 3.1629 11.3765 3.13079C11.4381 3.09868 11.5056 3.0793 11.5749 3.07379C11.6441 3.06828 11.7138 3.07676 11.7798 3.09872C11.8457 3.12068 11.9066 3.15568 11.9587 3.20163C12.8778 3.96078 13.5595 4.96794 13.9228 6.10334C14.286 7.23873 14.3155 8.45457 14.0078 9.60624C13.7 10.7579 13.0679 11.797 12.1867 12.5998C11.3055 13.4026 10.2122 13.9354 9.03694 14.1349L9.03694 13.0804Z" fill="white"/>
</g>
<defs>
<clipPath id="clip0_373_576">
<rect width="16" height="16" fill="white"/>
</clipPath>
</defs>
</svg>
