<svg width="16" height="16" viewBox="0 0 16 16" fill="none" xmlns="http://www.w3.org/2000/svg">
<path d="M13.0306 11.9694C13.1715 12.1103 13.2506 12.3014 13.2506 12.5006C13.2506 12.6999 13.1715 12.891 13.0306 13.0319C12.8897 13.1728 12.6986 13.2519 12.4993 13.2519C12.3001 13.2519 12.109 13.1728 11.9681 13.0319L7.99997 9.06249L4.0306 13.0306C3.8897 13.1715 3.69861 13.2507 3.49935 13.2507C3.30009 13.2507 3.10899 13.1715 2.9681 13.0306C2.8272 12.8897 2.74805 12.6986 2.74805 12.4994C2.74805 12.3001 2.8272 12.109 2.9681 11.9681L6.93747 7.99999L2.96935 4.03061C2.82845 3.88972 2.7493 3.69862 2.7493 3.49936C2.7493 3.30011 2.82845 3.10901 2.96935 2.96811C3.11024 2.82722 3.30134 2.74806 3.5006 2.74806C3.69986 2.74806 3.89095 2.82722 4.03185 2.96811L7.99997 6.93749L11.9693 2.96749C12.1102 2.82659 12.3013 2.74744 12.5006 2.74744C12.6999 2.74744 12.891 2.82659 13.0318 2.96749C13.1727 3.10838 13.2519 3.29948 13.2519 3.49874C13.2519 3.69799 13.1727 3.88909 13.0318 4.02999L9.06247 7.99999L13.0306 11.9694Z" fill="white"/>
</svg>
